<svg xmlns="http://www.w3.org/2000/svg" viewBox="0 0 56.32 59.39"><defs><style>.cls-1{fill:#fff;}</style></defs><g id="Layer_3" data-name="Layer 3"><path class="cls-1" d="M53.62,46.38H50.71V43.07a.9.9,0,0,0-.9-.91H29.07V40a20,20,0,0,0,19.1-20h0a20,20,0,0,0-20-20,20,20,0,0,0-20,20h0a19.78,19.78,0,0,0,4.29,12.37h0A19.9,19.9,0,0,0,27.27,40v2.19H6.52a.91.91,0,0,0-.91.91v3.31H2.7A2.7,2.7,0,0,0,0,49.08v7.61a2.7,2.7,0,0,0,2.7,2.7h7.63a2.7,2.7,0,0,0,2.7-2.7V49.08a2.7,2.7,0,0,0-2.7-2.7H7.41V44H27.27v2.4h-3a2.69,2.69,0,0,0-2.69,2.7v7.61a2.69,2.69,0,0,0,2.69,2.7h7.62a2.7,2.7,0,0,0,2.7-2.7V49.08a2.7,2.7,0,0,0-2.7-2.7H29.07V44H48.92v2.4H46a2.69,2.69,0,0,0-2.7,2.7v7.61a2.69,2.69,0,0,0,2.7,2.7h7.61a2.69,2.69,0,0,0,2.7-2.7V49.08A2.69,2.69,0,0,0,53.62,46.38Zm-37-16.86c-.26.08-.52.19-.79.27s-.67.24-1,.35l-.77.32a4.63,4.63,0,0,0-.59.21A18,18,0,0,1,10,20.89h6.24a22.48,22.48,0,0,0,1.89,8.18l-.5.16C17.27,29.31,16.93,29.42,16.58,29.52ZM13.44,9.3a6.07,6.07,0,0,0,.59.24l.78.32c.31.1.65.21,1,.34s.54.17.81.27.67.19,1,.27a5.7,5.7,0,0,0,.55.16,22.91,22.91,0,0,0-1.9,8.2H10A18.08,18.08,0,0,1,13.44,9.3Zm26.29,1.17c.28-.1.55-.19.83-.27s.64-.24,1-.34l.79-.32a5.89,5.89,0,0,0,.58-.24,18,18,0,0,1,3.44,9.8H40.1a23.33,23.33,0,0,0-1.89-8.2c.17,0,.34-.11.53-.16S39.41,10.58,39.73,10.47Zm3.16,20.2a5.12,5.12,0,0,1-.58-.21l-.79-.32c-.32-.11-.64-.25-1-.35s-.55-.19-.83-.27l-1-.29-.52-.16a22.46,22.46,0,0,0,1.88-8.18h6.23A17.86,17.86,0,0,1,42.89,30.67ZM25.4,27.92,24.21,28l-.83.11c-.37.05-.75.07-1.12.13a8.13,8.13,0,0,1-.84.13c-.37.06-.74.14-1.1.22a1.75,1.75,0,0,0-.41.08A20.64,20.64,0,0,1,18,20.89h9.25v7c-.37,0-.72,0-1.07,0A7,7,0,0,0,25.4,27.92ZM20.32,11.41c.36.08.71.13,1.07.18l.87.17c.36,0,.73.08,1.1.13l.85.08c.4,0,.8.08,1.19.11a6.66,6.66,0,0,1,.78.05c.37,0,.72,0,1.09,0V19.1H18a20.88,20.88,0,0,1,1.89-7.77Zm10.62.67c.39,0,.79-.06,1.18-.11l.85-.08c.37-.05.75-.11,1.11-.13l.87-.17c.34-.05.71-.1,1-.18l.42-.08A21.46,21.46,0,0,1,38.3,19.1H29.07V12.16c.35,0,.72,0,1.07,0A7.16,7.16,0,0,1,30.94,12.08ZM36,28.59c-.34-.08-.68-.14-1-.19l-.9-.16c-.35-.06-.7-.08-1.06-.13L32.12,28,31,27.92c-.3,0-.58,0-.87-.06s-.72,0-1.07,0V20.89H38.3a20.81,20.81,0,0,1-1.87,7.78A2.17,2.17,0,0,0,36,28.59Zm-6.93,1c.32,0,.64,0,1,0l.5,0c.44,0,.89.06,1.35.11l.65.08c.39,0,.79.08,1.18.13l.7.11c.38.08.74.13,1.1.21h.07a21.8,21.8,0,0,1-6.52,7.11Zm6.44-20c-.35.08-.7.14-1,.19l-.76.13c-.37.06-.74.08-1.12.14l-.71.07-1.23.08c-.22,0-.42,0-.62.06s-.64,0-1,0V2.54a21.3,21.3,0,0,1,6.5,7.13Zm-8.24.7c-.32,0-.65,0-1,0s-.4,0-.6-.06l-1.24-.08-.72-.07c-.38-.06-.75-.08-1.11-.14l-.76-.13c-.35,0-.71-.11-1-.19h-.06a21.2,21.2,0,0,1,6.5-7.13Zm-6.47,20c.38-.08.74-.13,1.11-.21l.71-.11c.39-.05.78-.11,1.17-.13l.66-.08c.44-.05.89-.08,1.35-.11l.49,0c.32,0,.66,0,1,0v7.8a21.59,21.59,0,0,1-6.52-7.11Zm10.66,7.56a23.22,23.22,0,0,0,5.94-7.16l.63.16c.34.11.67.19,1,.3l.74.24.94.32c.23.1.47.19.7.27a2,2,0,0,0,.31.13A18,18,0,0,1,31.46,37.88Zm10.25-30c-.11,0-.2.08-.3.11a7,7,0,0,1-.72.27c-.31.13-.61.24-.93.34s-.5.17-.75.24l-1,.27-.66.16a23.62,23.62,0,0,0-5.9-7.16A18.22,18.22,0,0,1,41.71,7.85ZM24.85,2.08a23.68,23.68,0,0,0-5.92,7.16l-.64-.16c-.33-.08-.65-.18-1-.27s-.49-.15-.73-.24-.63-.21-.95-.34A6.86,6.86,0,0,1,14.92,8l-.29-.11A18.19,18.19,0,0,1,24.85,2.08ZM14.63,32.14a1.85,1.85,0,0,0,.29-.13c.24-.08.47-.17.71-.27l.95-.32.72-.24c.34-.11.67-.19,1-.3l.62-.16a23.37,23.37,0,0,0,5.94,7.16A17.91,17.91,0,0,1,14.63,32.14ZM11.22,49.08v7.61a.9.9,0,0,1-.89.91H2.7a.9.9,0,0,1-.89-.91V49.08a.92.92,0,0,1,.89-.91h7.63A.92.92,0,0,1,11.22,49.08Zm21.52,0v7.61a.9.9,0,0,1-.89.91H24.23a.9.9,0,0,1-.9-.91V49.08a.92.92,0,0,1,.9-.91h7.62A.92.92,0,0,1,32.74,49.08Zm21.79,7.61a.91.91,0,0,1-.91.91H46a.91.91,0,0,1-.91-.91V49.08a.93.93,0,0,1,.91-.91h7.61a.93.93,0,0,1,.91.91Z"/></g></svg>