<svg xmlns="http://www.w3.org/2000/svg" viewBox="0 0 61.05 43.45"><defs><style>.cls-1{fill:#fff;}</style></defs><g id="Layer_2" data-name="Layer 2"><path class="cls-1" d="M14.71,37.9a.83.83,0,0,1-.81-.63c-.12-.45-2.85-11.15,3.46-20.39C21.91,10.23,29.92,6.14,41.19,4.73V.84a.84.84,0,0,1,.42-.73.86.86,0,0,1,.85,0L60.63,10.6a.84.84,0,0,1,.42.73.83.83,0,0,1-.42.73L42.46,22.56a.85.85,0,0,1-1.27-.74V18.23A48,48,0,0,0,28,21.93c-7.61,3.51-11.79,8.62-12.42,15.21a.85.85,0,0,1-.77.76ZM42.88,2.31V5.48a.84.84,0,0,1-.75.84C31,7.58,23.11,11.46,18.75,17.83A23.84,23.84,0,0,0,15,32.33c1.89-5,6.07-9.06,12.32-11.93a49.77,49.77,0,0,1,14.67-4,.84.84,0,0,1,.94.83v3.09l15.64-9ZM42,5.48h0Z"/><path class="cls-1" d="M45.07,43.45H.84A.85.85,0,0,1,0,42.6V9.76a.85.85,0,0,1,.84-.84h26a.85.85,0,0,1,0,1.69H1.69V41.76H44.23V20.07a.84.84,0,1,1,1.68,0V42.6A.84.84,0,0,1,45.07,43.45Z"/></g></svg>