<svg xmlns="http://www.w3.org/2000/svg" viewBox="0 0 50.16 55.67"><defs><style>.cls-1{fill:#fff;}</style></defs><g id="Layer_3" data-name="Layer 3"><path class="cls-1" d="M44,0H6.15A6.15,6.15,0,0,0,0,6.16V42.75a6.15,6.15,0,0,0,6.15,6.16h4v5.93a.8.8,0,0,0,.43.73.92.92,0,0,0,.87,0l9.84-6.64H44a6.17,6.17,0,0,0,6.16-6.16V6.16A6.17,6.17,0,0,0,44,0Zm4.47,42.75A4.47,4.47,0,0,1,44,47.23H21.06a.81.81,0,0,0-.48.15l-8.74,5.89V48.06a.83.83,0,0,0-.83-.83H6.15a4.47,4.47,0,0,1-4.46-4.48V6.16A4.45,4.45,0,0,1,6.15,1.7H44a4.45,4.45,0,0,1,4.47,4.46Z"/><path class="cls-1" d="M42.7,26a4.52,4.52,0,0,0,.92-2.86,3.72,3.72,0,0,0-3.49-3.83H31a18.52,18.52,0,0,0,.34-5.44c-.37-4.15-2.39-7-5-7.13a6.59,6.59,0,0,0-3.34.5.88.88,0,0,0-.39.9c.38,1.83.84,5.11.49,6.19-.74,2.27-2.54,4.5-4.14,6.48s-3,3.63-3,5.08V40.32a2.34,2.34,0,0,0,2.33,2.33H37.19c.1,0,.2,0,.27,0a4.13,4.13,0,0,0,3.76-4.13,4.06,4.06,0,0,0-.15-1.1,4.22,4.22,0,0,0,2.37-3.76,4.13,4.13,0,0,0-.62-2.15,4.17,4.17,0,0,0,1-2.75A3.59,3.59,0,0,0,42.7,26ZM41.18,30.7a.9.9,0,0,0-.34.6.87.87,0,0,0,.23.66,2.42,2.42,0,0,1,.68,1.67,2.51,2.51,0,0,1-2,2.43.87.87,0,0,0-.6.45.89.89,0,0,0,0,.78A2.47,2.47,0,0,1,37.28,41h-19a.64.64,0,0,1-.64-.63V25.84c0-.85,1.31-2.45,2.58-4,1.69-2.07,3.6-4.43,4.45-7,.47-1.46,0-4.76-.29-6.29a9.36,9.36,0,0,1,1.85-.1c1.69,0,3.12,2.4,3.41,5.59a17.56,17.56,0,0,1-.54,5.9.77.77,0,0,0,.14.73A.88.88,0,0,0,30,21H40.13a2.05,2.05,0,0,1,1.8,2.13c0,1.58-.86,2.11-1,2.13a.86.86,0,0,0-.82.85.83.83,0,0,0,.84.85c.45,0,1.27.53,1.27,1.81A2.44,2.44,0,0,1,41.18,30.7Z"/><path class="cls-1" d="M10.07,24.29H9.83A3.21,3.21,0,0,0,6.62,27.5V39.44a3.22,3.22,0,0,0,3.21,3.21h.24a3.22,3.22,0,0,0,3.2-3.21V27.5A3.21,3.21,0,0,0,10.07,24.29Zm1.51,15.15A1.51,1.51,0,0,1,10.07,41H9.83A1.53,1.53,0,0,1,8.3,39.44V27.5A1.54,1.54,0,0,1,9.83,26h.24a1.53,1.53,0,0,1,1.51,1.53Z"/></g></svg>