<svg xmlns="http://www.w3.org/2000/svg" viewBox="0 0 52.2 52.1"><defs><style>.cls-1{fill:#fff;}</style></defs><g id="Layer_3" data-name="Layer 3"><path class="cls-1" d="M48.25,0H19.65A4,4,0,0,0,15.7,4V24.61H4a4,4,0,0,0-4,4V42.19a4,4,0,0,0,4,3.94H21.58l7.66,5.8a.72.72,0,0,0,.47.17.62.62,0,0,0,.35-.1.77.77,0,0,0,.45-.7V46.13h2a4,4,0,0,0,4-3.94v-7H48.25a4,4,0,0,0,4-3.94V4A4,4,0,0,0,48.25,0ZM34.92,42.19a2.36,2.36,0,0,1-2.37,2.37H29.71a.79.79,0,0,0-.78.8v4.36l-6.6-5a.92.92,0,0,0-.48-.16H4a2.37,2.37,0,0,1-2.37-2.37V28.57A2.37,2.37,0,0,1,4,26.2H15.7v5a4,4,0,0,0,3.95,3.94h2.06v5.16a.78.78,0,0,0,.43.71,1,1,0,0,0,.35.07A.9.9,0,0,0,23,41l7.66-5.8h4.29Zm15.71-11a2.39,2.39,0,0,1-2.38,2.37H30.36a.85.85,0,0,0-.49.14l-6.59,5V34.37a.78.78,0,0,0-.79-.77H19.65a2.39,2.39,0,0,1-2.37-2.37V4A2.37,2.37,0,0,1,19.65,1.6h28.6A2.37,2.37,0,0,1,50.63,4Z"/><path class="cls-1" d="M34,5.73A11.86,11.86,0,1,0,45.82,17.59,11.87,11.87,0,0,0,34,5.73Zm0,22.14A10.29,10.29,0,1,1,44.23,17.59,10.28,10.28,0,0,1,34,27.87Z"/><path class="cls-1" d="M32.06,11a.82.82,0,0,0-.83,0,.74.74,0,0,0-.44.69V23.53a.77.77,0,0,0,.44.7.81.81,0,0,0,.35.07.9.9,0,0,0,.48-.14L40,18.22a.76.76,0,0,0,.31-.63A.81.81,0,0,0,40,17Zm.3,10.92V13.24l5.81,4.35Z"/><path class="cls-1" d="M.8,1.6H11a.79.79,0,0,0,.79-.8A.79.79,0,0,0,11,0H.8A.79.79,0,0,0,0,.8.79.79,0,0,0,.8,1.6Z"/><path class="cls-1" d="M11,6.15H3.16a.8.8,0,0,0,0,1.6H11a.8.8,0,0,0,0-1.6Z"/><path class="cls-1" d="M11,12.3H5.54a.8.8,0,0,0,0,1.6H11a.8.8,0,0,0,0-1.6Z"/><path class="cls-1" d="M11,18.45H7.91a.79.79,0,0,0,0,1.58H11a.79.79,0,1,0,0-1.58Z"/></g></svg>