<svg xmlns="http://www.w3.org/2000/svg" viewBox="0 0 52.2 51.67"><defs><style>.cls-1{fill:#fff;}</style></defs><g id="Layer_3" data-name="Layer 3"><path class="cls-1" d="M52.2,46.13a1,1,0,0,0,0-.26.09.09,0,0,1,0-.07s0,0,0,0l-3.92-7.07V14.63a3.36,3.36,0,0,0-3.35-3.36H43.7V.8a.79.79,0,0,0-.8-.8H9.3a.79.79,0,0,0-.79.8V11.27H7.37A3.36,3.36,0,0,0,4,14.63V38.69L.11,45.76s0,0,0,0a.64.64,0,0,1,0,.07.55.55,0,0,0,0,.26H0V48.5a3.16,3.16,0,0,0,3.17,3.17H49A3.16,3.16,0,0,0,52.2,48.5V46.13ZM44.84,12.86a1.77,1.77,0,0,1,1.77,1.77V38.1H30.92v-3h12a.79.79,0,0,0,.8-.79V12.86ZM22.74,38.1v-23a6.14,6.14,0,0,0,1,.29l.27.07.77.14.29,0a.61.61,0,0,0,.23,0V38.1Zm1.45-26.95a6.13,6.13,0,0,0,1.85.31,6,6,0,0,0,1.83-.31l1.18,2.35a.61.61,0,0,0-.12.05c-.09,0-.18.07-.28.09a4.92,4.92,0,0,1-.58.19l-.31.07-.6.12-.27,0a7.89,7.89,0,0,1-.84,0h0a8.08,8.08,0,0,1-.85,0l-.27,0-.6-.12L24,13.83c-.19-.05-.38-.12-.57-.19s-.19-.07-.28-.09L23,13.5Zm.72-1.43L26,7.46,27.15,9.7A4.26,4.26,0,0,1,24.91,9.72Zm1.91,5.92a.56.56,0,0,0,.23,0l.29,0,.78-.14.25-.07a6.26,6.26,0,0,0,1-.29v23H26.82ZM10.08,1.6h32V6.34H30.78a.79.79,0,1,0,0,1.57H42.12V33.5H30.92V13.8a.78.78,0,0,0-.07-.23v-.05l-4.1-8.19a.82.82,0,0,0-1.42,0l-4.09,8.19a.07.07,0,0,1,0,.05.78.78,0,0,0,0,.23s0,0,0,0V33.5H10.08V7.91h11.2a.79.79,0,1,0,0-1.57H10.08Zm-4.48,13a1.78,1.78,0,0,1,1.77-1.77H8.51V34.28a.79.79,0,0,0,.79.79H21.15v3H5.6ZM5.27,39.7H46.93l3.13,5.66H2.14Zm45.36,8.8A1.59,1.59,0,0,1,49,50.1H3.17a1.58,1.58,0,0,1-1.59-1.6V46.93H50.63Z"/><path class="cls-1" d="M40.11,4.76a.85.85,0,0,0,.56-.23A.8.8,0,0,0,40.9,4a.85.85,0,0,0-.23-.57.85.85,0,0,0-1.12,0,.91.91,0,0,0-.24.57.86.86,0,0,0,.24.56A.81.81,0,0,0,40.11,4.76Z"/><ellipse class="cls-1" cx="36.59" cy="3.97" rx="0.79" ry="0.8"/><path class="cls-1" d="M33.07,4.76a.83.83,0,0,0,.56-.23A.84.84,0,0,0,33.85,4a.89.89,0,0,0-.22-.57.84.84,0,0,0-1.11,0,.82.82,0,0,0-.25.57.82.82,0,0,0,.8.79Z"/><path class="cls-1" d="M33.15,12.86h4.26v4.65H33.23a.78.78,0,0,0-.79.78.8.8,0,0,0,.79.8h5a.79.79,0,0,0,.78-.8V12.07a.79.79,0,0,0-.78-.8H33.15a.8.8,0,0,0,0,1.59Z"/><path class="cls-1" d="M18.91,12.86a.8.8,0,1,0,0-1.59H13.86a.79.79,0,0,0-.78.8v6.22a.79.79,0,0,0,.78.8h4.91a.8.8,0,0,0,.8-.8.77.77,0,0,0-.8-.78H14.66V12.86Z"/><path class="cls-1" d="M38.2,22.87h-5a.79.79,0,1,0,0,1.57h5a.79.79,0,0,0,0-1.57Z"/><path class="cls-1" d="M18.77,22.87H13.86a.79.79,0,0,0,0,1.57h4.91a.79.79,0,1,0,0-1.57Z"/><path class="cls-1" d="M35.83,28.22h-2.6a.79.79,0,1,0,0,1.57h2.6a.79.79,0,0,0,0-1.57Z"/><path class="cls-1" d="M18.77,28.22H13.86a.79.79,0,0,0,0,1.57h4.91a.79.79,0,1,0,0-1.57Z"/></g></svg>