<svg xmlns="http://www.w3.org/2000/svg" viewBox="0 0 44.11 53.84"><defs><style>.cls-1{fill:#fff;}</style></defs><g id="Layer_3" data-name="Layer 3"><path class="cls-1" d="M22.06,47.86a1,1,0,0,1-.37-.08l-9.07-4.34A13.67,13.67,0,0,1,4.86,31.15v-17a.85.85,0,0,1,.76-.84c10.82-1.12,15.73-7,15.78-7.06A.84.84,0,0,1,22.06,6a.89.89,0,0,1,.65.32c.06.06,5,5.94,15.79,7.06a.84.84,0,0,1,.75.84v17A13.68,13.68,0,0,1,31.5,43.44l-9.08,4.34A.9.9,0,0,1,22.06,47.86ZM6.55,15v16.2a12,12,0,0,0,6.79,10.77l8.72,4.16,8.71-4.16a12,12,0,0,0,6.8-10.77V15c-8.91-1.12-13.83-5.22-15.51-6.89C20.38,9.73,15.45,13.83,6.55,15Z"/><path class="cls-1" d="M22.06,53.84a.81.81,0,0,1-.37-.09L9.92,48.13A17.51,17.51,0,0,1,0,32.4v-22a.85.85,0,0,1,.76-.84C14.91,8.1,21.34.39,21.4.31a.85.85,0,0,1,1.31,0c.07.08,6.49,7.79,20.65,9.26a.84.84,0,0,1,.75.84v22A17.52,17.52,0,0,1,34.2,48.13L22.42,53.75A.77.77,0,0,1,22.06,53.84ZM1.69,11.17V32.4a15.82,15.82,0,0,0,9,14.21l11.42,5.45,11.41-5.45a15.83,15.83,0,0,0,9-14.21V11.17c-12-1.45-18.4-7-20.37-9.07C20.09,4.12,13.65,9.72,1.69,11.17Z"/><path class="cls-1" d="M17,38.38a.85.85,0,0,1-.85-.84V31.46a.85.85,0,1,1,1.69,0v6.08A.85.85,0,0,1,17,38.38Z"/><path class="cls-1" d="M27.17,38.38a.85.85,0,0,1-.85-.84V31.46a.85.85,0,0,1,.85-.85.84.84,0,0,1,.84.85v6.08A.84.84,0,0,1,27.17,38.38Z"/><path class="cls-1" d="M22.06,23.72A4.89,4.89,0,1,1,27,18.83,4.89,4.89,0,0,1,22.06,23.72Zm0-8.09a3.2,3.2,0,1,0,3.2,3.2A3.21,3.21,0,0,0,22.06,15.63Z"/><path class="cls-1" d="M30.89,38.38H13.23a.85.85,0,0,1-.85-.84v-7.3A5.64,5.64,0,0,1,18,24.61H26.1a5.64,5.64,0,0,1,5.63,5.63v7.3A.85.85,0,0,1,30.89,38.38ZM14.07,36.69H30V30.24A4,4,0,0,0,26.1,26.3H18a4,4,0,0,0-3.94,3.94Z"/></g></svg>