<svg xmlns="http://www.w3.org/2000/svg" viewBox="0 0 48.76 56.45"><defs><style>.cls-1{fill:#fff;}</style></defs><g id="Layer_3" data-name="Layer 3"><path class="cls-1" d="M21.23,7.69c-.29-.31-.45-.5-.63-.67L15.94,2.35A1.33,1.33,0,0,1,15.76.41a1.3,1.3,0,0,1,2,.13c2.2,2.18,4.38,4.38,6.62,6.62l.57-.54L30.75.81l.41-.4A1.26,1.26,0,0,1,33,.38a1.29,1.29,0,0,1,0,1.84q-1.63,1.68-3.3,3.31c-.67.67-1.36,1.31-2,2l.07.2h.72c2.53,0,5.06-.05,7.58.11A14,14,0,0,1,48.64,20.29c.07.8.11,1.6.11,2.4q0,9.75,0,19.5a14,14,0,0,1-9.56,13.44,15.54,15.54,0,0,1-4.58.77c-6.8.08-13.61.05-20.41,0A14.1,14.1,0,0,1,0,42.36Q0,32.08,0,21.8A14.09,14.09,0,0,1,13.88,7.71c2.15-.07,4.3,0,6.45,0Zm3.16,2.61v0H14.25A11.49,11.49,0,0,0,2.6,21.84q-.06,10.25,0,20.49A11.5,11.5,0,0,0,14.22,53.87q10.17,0,20.34,0a11.46,11.46,0,0,0,11.61-11.4q.13-10.42,0-20.85A11.29,11.29,0,0,0,35.3,10.33C31.67,10.15,28,10.3,24.39,10.3Z"/><path class="cls-1" d="M25.67,34.27l5.77-1.44c2.61-.65,5.22-1.31,7.83-1.95a1.29,1.29,0,1,1,.62,2.47q-7.5,1.89-15,3.76c-1.07.27-1.75-.29-1.76-1.41,0-1.91,0-3.82,0-5.82-1.52.37-3,.72-4.44,1.09L9.61,33.23c-.95.24-1.62-.07-1.82-.82S8,31,9,30.76l14.75-3.69c1.3-.32,1.93.18,1.93,1.54v5.66Z"/></g></svg>