<svg xmlns="http://www.w3.org/2000/svg" viewBox="0 0 52.2 52.19"><defs><style>.cls-1{fill:#fff;}</style></defs><g id="Layer_3" data-name="Layer 3"><path class="cls-1" d="M52.2,26.11a4,4,0,0,0-3.53-3.93,23,23,0,0,0-3.83-9.27,3.94,3.94,0,0,0-2.92-6.59,3.86,3.86,0,0,0-2.66,1A22.69,22.69,0,0,0,30,3.52a3.94,3.94,0,0,0-7.83,0,23,23,0,0,0-9.26,3.83,3.89,3.89,0,0,0-2.64-1,3.94,3.94,0,0,0-2.92,6.59,23,23,0,0,0-3.83,9.27,3.93,3.93,0,0,0,0,7.82,22.68,22.68,0,0,0,3.83,9.25,4,4,0,0,0-1,2.65,3.93,3.93,0,0,0,6.61,2.92,22.65,22.65,0,0,0,9.24,3.85,3.94,3.94,0,0,0,7.83,0,23.14,23.14,0,0,0,9.27-3.83,3.92,3.92,0,0,0,2.64,1,3.95,3.95,0,0,0,2.91-6.62A22.71,22.71,0,0,0,48.68,30,3.94,3.94,0,0,0,52.2,26.11ZM41.92,38a3.86,3.86,0,0,0-2.17.66l-4.17-4.16a12.69,12.69,0,0,0,3.13-7.58h5.66a4,4,0,0,0,2.73,3,21.23,21.23,0,0,1-3.54,8.45A4.26,4.26,0,0,0,41.92,38Zm-22.6-3.12v-.16a9.28,9.28,0,0,1,.07-1.06,3.54,3.54,0,0,1,.09-.38,6.77,6.77,0,0,1,.16-.68,3.17,3.17,0,0,1,.14-.4c.08-.21.15-.42.25-.63a2.32,2.32,0,0,1,.2-.38c.1-.18.19-.4.31-.58s.17-.24.24-.36.26-.37.41-.54a3.45,3.45,0,0,1,.26-.28,6.28,6.28,0,0,1,.49-.54l.29-.21c.19-.16.37-.33.56-.47L23.1,28a.18.18,0,0,1,.08-.05,4.73,4.73,0,0,0,2.93,1A4.79,4.79,0,0,0,29,28a3.84,3.84,0,0,1,.4.21l0,0c.29.21.56.42.82.65,0,0,0,0,0,0a6.55,6.55,0,0,1,.71.77l0,0a6.56,6.56,0,0,1,.62.87s0,0,0,0a6.23,6.23,0,0,1,.49.92.06.06,0,0,1,0,0,8,8,0,0,1,.37,1s0,0,0,0a6.73,6.73,0,0,1,.23,1s0,0,0,0a7.17,7.17,0,0,1,.08,1s0,.11,0,.16A11,11,0,0,1,19.32,34.84Zm-6.87,3.78a3.84,3.84,0,0,0-3.82-.28,21.19,21.19,0,0,1-3.52-8.48,4,4,0,0,0,2.72-3h5.66a12.4,12.4,0,0,0,3.13,7.58ZM10.28,14.23a3.86,3.86,0,0,0,2.17-.66l4.17,4.15a12.5,12.5,0,0,0-3.13,7.59H7.83a4,4,0,0,0-2.72-3,21.33,21.33,0,0,1,3.52-8.48A3.84,3.84,0,0,0,10.28,14.23Zm15.81.8a11.06,11.06,0,0,1,8.28,18.42h0c0-.32-.12-.65-.2-1a.75.75,0,0,0,0-.16c-.09-.31-.19-.61-.3-.92l-.07-.14c-.13-.3-.27-.61-.42-.91,0,0,0-.05,0-.05a9.16,9.16,0,0,0-1.23-1.81v0a9.17,9.17,0,0,0-1.94-1.69,5.67,5.67,0,0,0,.95-3.17,4.78,4.78,0,0,0-5-4.91,4.78,4.78,0,0,0-5,4.91,5.68,5.68,0,0,0,1,3.17,9.73,9.73,0,0,0-3.66,4.5,1,1,0,0,0-.05.12c-.13.31-.22.61-.32.92,0,.07,0,.11,0,.16-.08.33-.15.64-.2,1h0A11.06,11.06,0,0,1,26.09,15Zm13.66-1.46a3.86,3.86,0,0,0,2.17.66,3.77,3.77,0,0,0,1.65-.38,21.33,21.33,0,0,1,3.52,8.48,3.93,3.93,0,0,0-2.72,3H38.71a12.72,12.72,0,0,0-3.13-7.59Zm-17,10.05a3.24,3.24,0,0,1,3.41-3.34,3.22,3.22,0,0,1,3.38,3.34,3.61,3.61,0,0,1-3.38,3.8A3.62,3.62,0,0,1,22.7,23.62Zm27.91,2.49a2.37,2.37,0,0,1-4.74,0,2.37,2.37,0,1,1,4.74,0ZM41.92,7.91a2.37,2.37,0,1,1-2.37,2.37A2.38,2.38,0,0,1,41.92,7.91ZM29.86,5.09a20.7,20.7,0,0,1,8.46,3.55A4.06,4.06,0,0,0,38,10.28a3.88,3.88,0,0,0,.66,2.16l-4.16,4.18a12.45,12.45,0,0,0-7.57-3.15V7.82A3.91,3.91,0,0,0,29.86,5.09ZM26.09,1.57a2.38,2.38,0,1,1-2.37,2.37A2.38,2.38,0,0,1,26.09,1.57Zm-.78,6.25v5.65a12.45,12.45,0,0,0-7.57,3.15l-4.16-4.18a3.84,3.84,0,0,0,.28-3.82,21.1,21.1,0,0,1,8.48-3.5A3.94,3.94,0,0,0,25.31,7.82Zm-15,.09a2.37,2.37,0,1,1-2.37,2.37A2.36,2.36,0,0,1,10.28,7.91Zm-8.7,18.2A2.38,2.38,0,1,1,4,28.45,2.36,2.36,0,0,1,1.58,26.11Zm8.7,18.17a2.38,2.38,0,1,1,2.37-2.38A2.37,2.37,0,0,1,10.28,44.28Zm12,2.81a21.43,21.43,0,0,1-8.47-3.52,3.93,3.93,0,0,0,.38-1.67,3.87,3.87,0,0,0-.66-2.15l4.14-4.16.33.26a12.48,12.48,0,0,0,7.26,2.86v5.66A4,4,0,0,0,22.33,47.09Zm3.76,3.52a2.37,2.37,0,1,1,2.39-2.37A2.37,2.37,0,0,1,26.09,50.61Zm.8-6.24V38.71a12.55,12.55,0,0,0,7.26-2.86h0l.31-.26,4.16,4.16A3.87,3.87,0,0,0,38,41.9a3.93,3.93,0,0,0,.38,1.67,21.41,21.41,0,0,1-8.48,3.52A3.92,3.92,0,0,0,26.89,44.37Zm15-.09a2.38,2.38,0,1,1,2.37-2.38A2.37,2.37,0,0,1,41.92,44.28Z"/></g></svg>