<svg xmlns="http://www.w3.org/2000/svg" viewBox="0 0 55.21 55.24"><defs><style>.cls-1{fill:#fff;}</style></defs><g id="Layer_2" data-name="Layer 2"><path class="cls-1" d="M0,27.55c0-4.24,0-8.48,0-12.72A14.42,14.42,0,0,1,12.12.23,12.12,12.12,0,0,1,14.36,0C23.18,0,32,0,40.81,0a14.36,14.36,0,0,1,14,11.38,15.24,15.24,0,0,1,.34,3.31q0,12.9,0,25.8A14.47,14.47,0,0,1,43,55a12.2,12.2,0,0,1-2.09.18c-8.84,0-17.69.05-26.53,0a14.33,14.33,0,0,1-14-11.34A16,16,0,0,1,0,40.49C0,36.17,0,31.86,0,27.55Zm2.66-9.07c0,.22,0,.41,0,.6,0,7.24,0,14.49,0,21.73A11.79,11.79,0,0,0,14.52,52.59q13.05,0,26.09,0a12,12,0,0,0,2.16-.18,11.77,11.77,0,0,0,9.81-11.8c0-7.15,0-14.3,0-21.44v-.69ZM16.82,2.67c.09.2.12.29.16.37,2.4,4.11,4.81,8.23,7.19,12.35a.85.85,0,0,0,.9.42H37.7c.21,0,.41,0,.67,0a2.23,2.23,0,0,0-.12-.33Q34.64,9.25,31,3a1,1,0,0,0-.74-.38q-6.47,0-12.93,0Zm17-.14c.17.37.23.52.31.66q3.54,6.08,7.08,12.16a.87.87,0,0,0,.87.47c3.24,0,6.49,0,9.73,0,.23,0,.46,0,.75,0,0-.5,0-.93,0-1.36A11.56,11.56,0,0,0,42.92,2.92,78.81,78.81,0,0,0,33.84,2.53ZM21.26,15.78a1,1,0,0,0-.05-.26Q17.6,9.31,14,3.11a.81.81,0,0,0-.64-.27A11.76,11.76,0,0,0,3.11,11.19a12.43,12.43,0,0,0-.43,4.59Z"/><path class="cls-1" d="M19.74,34.81c0-1.92,0-3.83,0-5.74a3.92,3.92,0,0,1,5.88-3.54q5.32,2.89,10.53,6a3.83,3.83,0,0,1,0,6.66c-3.47,2.06-7,4-10.53,6a3.93,3.93,0,0,1-5.88-3.55C19.72,38.68,19.74,36.74,19.74,34.81Zm2.62.08c0,1.91,0,3.83,0,5.74a1.28,1.28,0,0,0,2,1.23Q29.6,38.93,34.78,36a1.18,1.18,0,0,0,0-2.22q-5.16-3-10.34-5.87a1.29,1.29,0,0,0-2.07,1.22C22.35,31,22.36,33,22.36,34.89Z"/></g></svg>