<svg xmlns="http://www.w3.org/2000/svg" viewBox="0 0 49.35 49.35"><defs><style>.cls-1{fill:#fff;}</style></defs><g id="Layer_3" data-name="Layer 3"><path class="cls-1" d="M12.55,24.55a12.13,12.13,0,1,1,24.26,0,12.13,12.13,0,1,1-24.26,0Zm3.39,0a8.74,8.74,0,1,0,8.74-8.74A8.75,8.75,0,0,0,15.94,24.55Z"/><path class="cls-1" d="M2.77,2.77A9.56,9.56,0,0,1,9.48,0H39.84a9.51,9.51,0,0,1,9.51,9.48V39.84a9.51,9.51,0,0,1-9.51,9.51H9.48A9.46,9.46,0,0,1,0,39.84V9.48A9.56,9.56,0,0,1,2.77,2.77ZM2.71,39.1a7.52,7.52,0,0,0,7.52,7.51H39.1a7.52,7.52,0,0,0,7.54-7.51V10A7.53,7.53,0,0,0,39.1,2.45H10.23A7.53,7.53,0,0,0,2.71,10Z"/><circle class="cls-1" cx="38.44" cy="10.73" r="2.37"/></g></svg>