<svg xmlns="http://www.w3.org/2000/svg" viewBox="0 0 61.61 61.07"><defs><style>.cls-1{fill:#fff;}</style></defs><g id="Layer_3" data-name="Layer 3"><path class="cls-1" d="M61.61,54.53a1.44,1.44,0,0,0,0-.31.11.11,0,0,1,0-.08l0,0-4.63-8.34V14.88a4,4,0,0,0-4-4H44.82a14.45,14.45,0,0,0-28,0H8.7a4,4,0,0,0-4,4V45.75L.12,54.09l0,0a.16.16,0,0,0,0,.08.78.78,0,0,0-.06.31H0v2.8a3.73,3.73,0,0,0,3.74,3.74H57.89a3.73,3.73,0,0,0,3.72-3.74v-2.8Zm-30.8-25.6a14.47,14.47,0,0,0,14-10.78h4.92V39.62H11.9V18.15h4.93A14.47,14.47,0,0,0,30.81,28.93Zm0-27.07A12.61,12.61,0,1,1,18.2,14.46,12.62,12.62,0,0,1,30.81,1.86Zm-24.2,13A2.08,2.08,0,0,1,8.7,12.8h7.75a12.58,12.58,0,0,0-.12,1.66,14.09,14.09,0,0,0,.14,1.83H11a.94.94,0,0,0-.94.92V40.57a.93.93,0,0,0,.94.91H50.64a.93.93,0,0,0,.94-.91V17.21a.93.93,0,0,0-.94-.92H45.15a16.08,16.08,0,0,0,.13-1.83,14.66,14.66,0,0,0-.1-1.66h7.73A2.07,2.07,0,0,1,55,14.88V45.05H6.61ZM6.22,46.94H55.39l3.7,6.68H2.52ZM59.74,57.33a1.86,1.86,0,0,1-1.85,1.88H3.74a1.86,1.86,0,0,1-1.87-1.88V55.47H59.74Z"/><path class="cls-1" d="M30.77,23.19h0a.92.92,0,0,0,.93-.91.91.91,0,0,0-.93-.94A6.88,6.88,0,0,1,25.85,9.7L25.78,11a.94.94,0,0,0,.88,1h0a.94.94,0,0,0,.94-.89l.19-3.43a.93.93,0,0,0-.88-1l-3.45-.2a1,1,0,0,0-1,.89,1,1,0,0,0,.89,1l1.11.05a8.49,8.49,0,0,0-2.3,4.52,8.73,8.73,0,0,0,8.56,10.25Z"/><path class="cls-1" d="M30.77,7.59h0a6.88,6.88,0,0,1,4.93,11.7V17.93a1,1,0,0,0-.93-1h0a.94.94,0,0,0-.93.94l0,3.44a1,1,0,0,0,.26.66.91.91,0,0,0,.67.28l3.45,0h0a.93.93,0,0,0,.93-.94,1,1,0,0,0-.91-.94H37.17A8.73,8.73,0,0,0,30.8,5.74h0a.92.92,0,0,0-.94.91A1,1,0,0,0,30.77,7.59Z"/><path class="cls-1" d="M15.41,33.31H46.2a.94.94,0,0,0,.95-1,1,1,0,0,0-.95-.94H15.41a1,1,0,0,0-.95.94A1,1,0,0,0,15.41,33.31Z"/><path class="cls-1" d="M14.74,35.8a1,1,0,0,0,0,1.33,1,1,0,0,0,.67.28.92.92,0,0,0,.92-.94,1,1,0,0,0-.26-.67A1,1,0,0,0,14.74,35.8Z"/><path class="cls-1" d="M30.11,35.52a.95.95,0,0,0,0,1.89.95.95,0,0,0,0-1.89Z"/><path class="cls-1" d="M20.31,35.52a.95.95,0,1,0,.93.95A1,1,0,0,0,20.31,35.52Z"/><path class="cls-1" d="M25.22,35.52a.95.95,0,1,0,0,1.89.95.95,0,0,0,0-1.89Z"/><path class="cls-1" d="M34.35,35.8a1,1,0,0,0,0,1.33,1,1,0,0,0,.66.28.91.91,0,0,0,.65-.28,1,1,0,0,0,.29-.66.94.94,0,0,0-.29-.67A1,1,0,0,0,34.35,35.8Z"/></g></svg>