<svg xmlns="http://www.w3.org/2000/svg" xmlns:xlink="http://www.w3.org/1999/xlink" viewBox="0 0 127.9 121.54"><defs><style>.cls-1{isolation:isolate;}.cls-2{fill:url(#linear-gradient);}.cls-3,.cls-4{mix-blend-mode:soft-light;}.cls-3{fill:url(#linear-gradient-2);}.cls-4{fill:url(#linear-gradient-3);}.cls-5{mix-blend-mode:overlay;opacity:0.79;fill:url(#linear-gradient-4);}.cls-6{fill:url(#linear-gradient-5);}</style><linearGradient id="linear-gradient" x1="19.76" y1="95" x2="122.41" y2="29.38" gradientUnits="userSpaceOnUse"><stop offset="0.01" stop-color="#22d7fc"/><stop offset="0.04" stop-color="#3cacf9"/><stop offset="0.07" stop-color="#518af8"/><stop offset="0.11" stop-color="#5f72f6"/><stop offset="0.14" stop-color="#6864f5"/><stop offset="0.16" stop-color="#6b5ff5"/><stop offset="0.27" stop-color="#7953f3"/><stop offset="0.47" stop-color="#9d35ef"/><stop offset="0.57" stop-color="#b125ec"/><stop offset="0.61" stop-color="#cf2edd"/><stop offset="0.66" stop-color="#e736d2"/><stop offset="0.7" stop-color="#f53aca"/><stop offset="0.73" stop-color="#fa3cc8"/><stop offset="0.99" stop-color="#6b5ff5"/></linearGradient><linearGradient id="linear-gradient-2" x1="842.33" y1="1582.28" x2="842.33" y2="1513.15" gradientTransform="matrix(1, 0, 0, -1, -736.64, 1612.46)" gradientUnits="userSpaceOnUse"><stop offset="0" stop-opacity="0"/><stop offset="1"/></linearGradient><linearGradient id="linear-gradient-3" x1="805.43" y1="1551.08" x2="774.57" y2="1520.22" gradientTransform="matrix(1, 0, 0, -1, -736.64, 1612.46)" gradientUnits="userSpaceOnUse"><stop offset="0" stop-opacity="0"/><stop offset="0.02" stop-opacity="0.05"/><stop offset="1"/></linearGradient><linearGradient id="linear-gradient-4" x1="110.77" y1="67.33" x2="110.77" y2="30.18" gradientUnits="userSpaceOnUse"><stop offset="0" stop-color="#fff"/><stop offset="0.1" stop-color="#fff" stop-opacity="0.81"/><stop offset="0.24" stop-color="#fff" stop-opacity="0.6"/><stop offset="0.37" stop-color="#fff" stop-opacity="0.42"/><stop offset="0.5" stop-color="#fff" stop-opacity="0.27"/><stop offset="0.63" stop-color="#fff" stop-opacity="0.15"/><stop offset="0.76" stop-color="#fff" stop-opacity="0.07"/><stop offset="0.88" stop-color="#fff" stop-opacity="0.02"/><stop offset="1" stop-color="#fff" stop-opacity="0"/></linearGradient><linearGradient id="linear-gradient-5" x1="34.23" y1="-4.44" x2="93.34" y2="25.86" gradientTransform="translate(74.49 -53.08) rotate(90)" gradientUnits="userSpaceOnUse"><stop offset="0.01" stop-color="#22d7fc"/><stop offset="0.05" stop-color="#3cacf9"/><stop offset="0.08" stop-color="#518af8"/><stop offset="0.12" stop-color="#5f72f6"/><stop offset="0.15" stop-color="#6864f5"/><stop offset="0.18" stop-color="#6b5ff5"/><stop offset="0.3" stop-color="#785cf1"/><stop offset="0.52" stop-color="#9b53e6"/><stop offset="0.81" stop-color="#d346d4"/><stop offset="1" stop-color="#fa3cc8"/></linearGradient></defs><g class="cls-1"><g id="Layer_4" data-name="Layer 4"><path class="cls-2" d="M42.74,65.74h0l8.9-27.27a12,12,0,0,1,11.44-8.29h.05a12,12,0,0,1,11.41,8.39l8.94,28.2a5.77,5.77,0,0,0,5.18,3.63c3.18,0,4.78-2.54,5.41-3.86l10.37-28.06a12,12,0,1,1,22.86,7.46l-27.38,67.3a12,12,0,0,1-11.43,8.3h-.06A12,12,0,0,1,77,113.14l-8.4-26.5S67.29,82.26,63,82.26s-5.73,4.66-5.73,4.66l-8.91,26.32a12,12,0,0,1-11.44,8.3h0a12,12,0,0,1-11.41-8.37L.87,46.18h0S-3.26,34.75,6.46,31.09c11.26-4.24,15.44,7.64,15.44,7.64h0l9.53,27h0l.07.22c.32.92,1.77,4.44,5.51,4.44C41.32,70.4,42.74,65.74,42.74,65.74Z"/><path class="cls-3" d="M88.66,70.4c3.18,0,4.78-2.54,5.41-3.86l10.37-28.06a12,12,0,1,1,22.86,7.46L107.82,93.82c-2.95,7.25-13.44,7.37-16.18.05-.09-.23-.16-.45-.23-.69L83.48,66.77A5.75,5.75,0,0,0,88.66,70.4Z"/><path class="cls-4" d="M70.41,92.29l-1.79-5.65S67.29,82.26,63,82.26s-5.73,4.66-5.73,4.66l-1.61,4.77-.83,2.4a7.36,7.36,0,0,1-14-.06L31.55,66.09c.39,1.06,1.86,4.31,5.46,4.31,4.31,0,5.73-4.66,5.73-4.66h0S45,59.05,47.42,51.91a5.82,5.82,0,0,1,11.09.24L62.2,64.74Z"/><path class="cls-5" d="M119.6,30.78a12,12,0,0,0-15.16,7.7L94.07,66.54c-.11.23-.26.5-.43.79H95.5a34.31,34.31,0,0,0,31.8-21.39h0A12,12,0,0,0,119.6,30.78Z"/><rect class="cls-6" x="53.08" y="-25.29" width="21.41" height="71.99" rx="10.71" transform="translate(53.08 74.49) rotate(-90)"/></g></g></svg>