<svg xmlns="http://www.w3.org/2000/svg" viewBox="0 0 52.2 49.98"><defs><style>.cls-1{fill:#fff;}</style></defs><g id="Layer_3" data-name="Layer 3"><path class="cls-1" d="M11.59,8.73v4.79A2.37,2.37,0,0,0,14,15.89H32.14a2.39,2.39,0,0,0,2.38-2.37V2.37A2.39,2.39,0,0,0,32.14,0H14a2.37,2.37,0,0,0-2.37,2.37v.12L8.77,5a.85.85,0,0,0-.27.59.77.77,0,0,0,.27.59Zm1.31-5.3a.76.76,0,0,0,.26-.59V2.37a.81.81,0,0,1,.8-.8H32.14a.82.82,0,0,1,.8.8V13.52a.81.81,0,0,1-.8.78H14a.79.79,0,0,1-.8-.78V8.38a.84.84,0,0,0-.26-.59L10.47,5.61Z"/><path class="cls-1" d="M38.3,19.51H20.11a2.36,2.36,0,0,0-2.37,2.37V33a2.36,2.36,0,0,0,2.37,2.37H38.3A2.37,2.37,0,0,0,40.67,33V28.24l2.82-2.53a.88.88,0,0,0,.26-.59.78.78,0,0,0-.26-.59L40.67,22v-.12A2.36,2.36,0,0,0,38.3,19.51Zm3.48,5.61L39.36,27.3a.72.72,0,0,0-.27.57V33a.79.79,0,0,1-.79.8H20.11a.79.79,0,0,1-.79-.8V21.88a.79.79,0,0,1,.79-.8H38.3a.79.79,0,0,1,.79.8v.47a.81.81,0,0,0,.27.59Z"/><path class="cls-1" d="M32.14,39H14a2.38,2.38,0,0,0-2.37,2.39L8.77,43.88a.77.77,0,0,0,0,1.17l2.82,2.54v0A2.37,2.37,0,0,0,14,50H32.14a2.39,2.39,0,0,0,2.38-2.37V41.34A2.39,2.39,0,0,0,32.14,39Zm.8,8.66a.81.81,0,0,1-.8.78H14a.79.79,0,0,1-.8-.78v-.38a.74.74,0,0,0-.26-.58l-2.43-2.19,2.43-2.18a.74.74,0,0,0,.26-.59v-.35a.79.79,0,0,1,.8-.8H32.14a.8.8,0,0,1,.8.8Z"/><path class="cls-1" d="M3.25,2.35A3.28,3.28,0,0,0,0,5.61,3.21,3.21,0,0,0,.56,7.44,3.25,3.25,0,0,0,3.25,8.87,3.28,3.28,0,0,0,6,7.44a3.2,3.2,0,0,0,.55-1.83A3.27,3.27,0,0,0,3.25,2.35Zm1.4,4.2a1.68,1.68,0,0,1-1.4.75,1.66,1.66,0,0,1-1.38-.75,1.67,1.67,0,1,1,2.78,0Z"/><path class="cls-1" d="M3.25,41.2a3.28,3.28,0,1,0,3.26,3.26A3.26,3.26,0,0,0,3.25,41.2Zm1.4,4.2a1.66,1.66,0,0,1-1.4.73,1.64,1.64,0,0,1-1.38-.73,1.67,1.67,0,1,1,2.78,0Z"/><path class="cls-1" d="M49,22.37a3.26,3.26,0,0,0-3.26,3.24,3.29,3.29,0,0,0,.56,1.83,3.26,3.26,0,0,0,5.4,0A3.26,3.26,0,0,0,49,22.37Zm1.39,4.18a1.67,1.67,0,0,1-2.79,0,1.62,1.62,0,0,1-.28-.94,1.68,1.68,0,0,1,3.36,0A1.71,1.71,0,0,1,50.34,26.55Z"/><path class="cls-1" d="M17,6.36H28.82a.79.79,0,1,0,0-1.57H17a.79.79,0,1,0,0,1.57Z"/><path class="cls-1" d="M17,11.1h9.78a.79.79,0,1,0,0-1.57H17a.79.79,0,1,0,0,1.57Z"/><path class="cls-1" d="M35.1,24.27H23.23a.8.8,0,1,0,0,1.6H35.1a.8.8,0,0,0,0-1.6Z"/><path class="cls-1" d="M29,29H23.23a.8.8,0,1,0,0,1.59H29A.8.8,0,0,0,29,29Z"/><path class="cls-1" d="M29,43.67H24.52a.8.8,0,1,0,0,1.59H29a.8.8,0,0,0,0-1.59Z"/><path class="cls-1" d="M20.34,43.67H15.81a.8.8,0,0,0,0,1.59h4.53a.8.8,0,0,0,0-1.59Z"/><path class="cls-1" d="M.79,38.92a.78.78,0,0,0,.79-.77V12A.79.79,0,1,0,0,12v26.2A.78.78,0,0,0,.79,38.92Z"/><path class="cls-1" d="M51.41,0H38.48a.79.79,0,0,0-.8.8.77.77,0,0,0,.8.77H50.63V19.3a.79.79,0,0,0,1.57,0V.8A.79.79,0,0,0,51.41,0Z"/><path class="cls-1" d="M51.41,31.15a.79.79,0,0,0-.78.8V48.39H38.48a.8.8,0,1,0,0,1.59H51.41a.79.79,0,0,0,.79-.8V32A.79.79,0,0,0,51.41,31.15Z"/></g></svg>